<svg version="1.2" xmlns="http://www.w3.org/2000/svg" viewBox="0 0 1000 1000" width="1000" height="1000">
	<title>10289215-ai</title>
	<defs>
		<clipPath clipPathUnits="userSpaceOnUse" id="cp1">
			<path d="m366.54 176.04l3.3 7c1.7 3.6 0.23 7.81-3.27 9.41l-54.49 24.88c-3.51 1.6-7.73-0.02-9.43-3.62l-3.3-6.99c-1.7-3.6-0.24-7.81 3.27-9.41l54.49-24.88c3.51-1.6 7.73 0.01 9.43 3.61z"/>
		</clipPath>
	</defs>
	<style>
		.s0 { fill: #ffffff } 
		.s1 { fill: #faf4e8 } 
		.s2 { fill: #edddb9 } 
		.s3 { fill: #000000 } 
		.s4 { fill: #e07760 } 
		.s5 { fill: none;stroke: #7a4747;stroke-linecap: round;stroke-linejoin: round;stroke-width: 2 } 
		.s6 { fill: #5582eb } 
		.s7 { fill: #86c1c4 } 
		.s8 { fill: none;stroke: #000000;stroke-linecap: round;stroke-linejoin: round;stroke-width: 2 } 
		.s9 { fill: #c5e9eb } 
		.s10 { fill: none;stroke: #000000;stroke-linecap: round;stroke-linejoin: round;stroke-width: 12 } 
		.s11 { fill: #ffb8be } 
		.s12 { fill: #efb400 } 
		.s13 { fill: #222221 } 
		.s14 { fill: none;stroke: #5582eb;stroke-linecap: round;stroke-linejoin: round;stroke-width: 4 } 
		.s15 { fill: none;stroke: #222221;stroke-linecap: round;stroke-linejoin: round;stroke-width: 2 } 
		.s16 { fill: #e3660b } 
	</style>
	<g id="BACKGROUND">
		<path id="&lt;Path&gt;" class="s0" d="m-1231 853h1000v-1000h-1000z"/>
	</g>
	<g id="OBJECTS">
		<g id="&lt;Group&gt;">
			<path id="&lt;Path&gt;" class="s1" d="m144.3 227.6c-1.8 7.7-2.6 15.7-2.3 24.1 1.1 27.4 21.8 51.3 45.8 62.6 42.9 20.2 106.7 4.3 147.9-15.2 40.9-19.3 73.6-53.3 77.3-100.1 1.6-19.2-2.1-39.5-13.9-54.6-19.8-25.2-56-29.7-87.9-27.6-61.5 4.1-151.4 43.3-166.9 110.8z"/>
			<path id="&lt;Path&gt;" class="s1" d="m286.6 376q7.5-2.2 14.6-4c19.9-4.9 40.8-6.3 60-13.6 43.3-16.4 70-58.5 99.9-93.8 20-23.6 42.7-45.1 67.4-63.8 45.9-35 100.3-60.8 157.9-65.3 57.6-4.4 118.4 14.5 157.4 57.1 19.3 21.1 32.7 47 43.5 73.6 42 104 40.1 211 12.7 318-22.9 89.7-93.4 169.6-170.9 218.6-149.4 94.5-280.4 86.1-383.6 72.8-70.2-9.1-156.2-20.6-204.5-78.9-52.5-63.4-67.9-141.1-58-221.8 3.7-29.6 11.8-59.2 26.2-85.5 18-32.9 63.3-64.8 96.5-80.8 24.3-11.7 53.8-24.4 80.9-32.6z"/>
		</g>
		<g id="&lt;Group&gt;">
			<g id="&lt;Group&gt;">
				<path id="&lt;Path&gt;" class="s2" d="m178.8 580.3l-12.5-17.5 128.7-92.7h254.8l247.2-313.4 16.9 13.3-253.7 321.6h-258.2z"/>
			</g>
			<g id="&lt;Group&gt;">
				<path id="&lt;Path&gt;" class="s2" d="m744.1 168.2l76.2-30.3-2.8 81.4z"/>
			</g>
		</g>
		<g id="&lt;Group&gt;">
			<path id="&lt;Path&gt;" class="s3" d="m606 507.6c-3.5 0.5-7-1.4-9.3-4-2.4-2.7-3.8-6-5.2-9.2-4.4-10.4-8.4-21-11.4-31.9-3-10.8-5-21.9-9.2-32.2-0.7-1.8-1.5-3.6-1.6-5.5-0.3-3.8 0.7-6.8 1.7-10.6 0.6-2.7 0.7-7.5 1.6-10.1 2.4-6.3 11.9-7.1 18.2-4.8 6.3 2.3 10.7 7.8 14.2 13.5 14.4 23 18.4 52 11.4 78.1-1.5 5.3-3.6 15.8-10.4 16.7z"/>
			<path id="&lt;Path&gt;" class="s4" d="m565.9 417.2c19.5-16.3 42.9-30.7 68.3-30 7.4 0.2 15.3 1.7 20.8 6.6 6.7 6 8.6 15.9 8 24.9-1.8 25.4-20.1 46.3-38.6 63.8-11.4 10.7-23.4 21.1-37.7 27.4-14.3 6.3-31.3 8.2-45.5 1.8-22.8-10.3-31.1-40.4-25.5-56.5 7.3-21.2 35.9-26.1 50.2-38z"/>
			<g id="&lt;Group&gt;">
				<path id="&lt;Path&gt;" class="s4" d="m510.7 469.6c3.3 8.9 6.7 17.9 12 25.8 5.4 7.8 13.1 14.5 22.3 16.8 8.6 2.1 17.6 0.2 26.2-1.8 8.8-2 18.1-4.4 24.5-10.8 11.7-11.5 9.4-31.1 3.2-46.3-7.6-18.7-19.5-35.3-31.3-51.7q-19.8-27.5-39.7-55.1c-6.5-9.1-13.8-18.8-24.4-22.6-13.2-4.7-28.4 1.6-34.7 14.1-5.4 10.5 0.3 19.4 4.2 29.5 12.9 33.9 25.2 68.1 37.7 102.1z"/>
				<g id="&lt;Group&gt;">
					<g id="&lt;Group&gt;">
						<path id="&lt;Path&gt;" class="s4" d="m491.4 275.8c2.1 5.9 5.1 11.9 8.6 17.2 1.2 2 3.4 6.7 6.2 5.5 2.7-1.2 3.7-9.1 4.1-11.6 1.6-8.1 6.6-18.3 16.8-16.2 0.3 0.1 0.7 0.2 0.9 0.4 0.4 0.3 0.6 0.8 0.7 1.3 0.7 3.4-0.5 6.7-1.6 9.9-2.5 6.8-3.1 11.9-2 19.2 1.1 6.8 3.1 13.5 3.7 20.4 1.5 17.3-9.1 22.2-21.8 31.1-6.3 4.3-12.7 8.7-20 10.9-21 6.2-27-12.9-34.9-28.6-8.6-17.2-17.1-35.3-21.7-54.1-0.5-2.2-0.9-4.4-0.3-6.5 0.7-2.6 2.9-5.1 5.6-3.2 1.1 0.7 1.8 1.7 2.5 2.8 3.6 5.5 6.2 11.6 9 17.6 1.9 4.2 3.1 12 7.1 14.6-1.3-8.8-5.5-17.2-8.1-25.7-1-3.3-1.8-6.7-2.4-10.1-0.7-4.4-1.5-10.1-0.8-14.6 0.4-2.5 1.6-4.9 3.8-6.2 2.1-1.3 5.2-1 6.7 1-0.5-3.6-0.2-7.4 1.1-10.8 0.6-1.7 1.5-3.4 3-4.3 2.6-1.7 6.3-0.5 8.4 1.8 2.1 2.3 3 5.5 3.8 8.5-0.3-2.9-0.2-6.1 1.8-8.3 1.6-1.9 5.5-2.6 7.2-0.4 4.3 5.3 5.1 11.3 6.7 17.6 1.7 7 3.4 14 5.9 20.8z"/>
						<path id="&lt;Path&gt;" class="s5" d="m449 311.5c13.3-8 27.2-16.2 42.7-17.4"/>
						<path id="&lt;Path&gt;" class="s5" d="m507.5 299.1c-5.6 4.6-9 11.9-8.9 19.1"/>
						<path id="&lt;Path&gt;" class="s5" d="m523 342.8c-2.2 3.2-5.4 5.6-9.1 6.7"/>
					</g>
					<path id="&lt;Path&gt;" class="s5" d="m469.6 243.3c4.2 17.3 9.3 34.3 15.1 51.1"/>
					<path id="&lt;Path&gt;" class="s5" d="m453.4 249.7c2.8 17.2 7.7 34 14.5 50"/>
					<path id="&lt;Path&gt;" class="s5" d="m468.3 364.5c4.8 2.9 11.5 2.5 15.9-1"/>
				</g>
				<path id="&lt;Path&gt;" class="s5" d="m573.8 410c7.2 12.6 12.2 26.7 18 40.1"/>
			</g>
			<g id="&lt;Group&gt;">
				<g id="&lt;Group&gt;">
					<path id="&lt;Path&gt;" class="s6" d="m688.4 371.7c-25.6 5.1-52.2 13.4-57 42.5-2.4 15.4-4.1 30.5-4.4 46.1-0.6 37.7-6.1 155.7-2.8 161.8 0.5 0.9 1 1.6 1.5 2.3h52.5c12.9-1.7 26-2.8 37.9-0.6 0.8 0.2 1.6 0.4 2.4 0.6h127.6c3.5-39.8-1.9-75.9-16.4-113.1-10-25.6-13.8-53.3-17.4-80.4-3.4-25.4-7.8-58.1-36.8-62.3-35.4-5.1-56.4-3-87.1 3.1z"/>
				</g>
				<path id="&lt;Path&gt;" class="s3" d="m883.4 457.2q-0.2 0.3-0.4 0.6c-8.4 12-21.2 22.1-31.8 32.1-11.1 10.4-24.2 14.2-38.5 19.1-7.2 2.5-13.4 3.3-18.1-2.7-5.3-6.6-5.7-11.8-0.5-18.5 11.5-14.7 26-27 42.2-36.3 8.2-4.6 16.6-9.3 25.6-12.4 7.1-2.4 20-7 24.5 1.8 2.6 5.2 0.3 11.5-3 16.3z"/>
				<path id="&lt;Path&gt;" class="s7" d="m675 624.4c-1.4-5.8-5.5-10.8-10.6-14-5.2-3.2-11.2-4.7-17.2-5.2-7.5-0.6-15.3 0.5-22 4-6.6 3.5-12.2 9.5-14.1 16.8 0.4 0.4 1.1 0.6 1.6 0.4"/>
				<path id="&lt;Path&gt;" class="s4" d="m773.5 417.6c9.6-12.9 30.3-18.2 46.4-14.4 22.6 5.2 41.3 21.8 53.4 41.5 12.2 19.8 18.4 42.5 23.2 65.2 2.6 12.4 4.7 26-1.1 37.3-11 21.2-37.4 9.8-50.8-1.8-7.6-6.6-14.4-14.2-20.9-21.9-16.1-19-30.9-39.2-44.2-60.2-4.4-6.9-8.8-14.2-10.6-22.2-2.1-9.5 0-17.4 4.6-23.5z"/>
				<path id="&lt;Path&gt;" class="s6" d="m858.6 413.2c-10.8-8.5-20.1-16.4-30.3-25.6-17-15.1-46.3-21.2-69.6-20.9l1.5 76.7c10.2 18.1 18.4 37.4 27.1 56.3 1.1 2.2 2.7 4.9 5.2 4.7 1 0 1.9-0.5 2.7-1 17.3-10.1 30.4-22.6 45.5-35.7 13.7-11.9 37.9-32.5 43.9-29.3 0 0-23.2-23-26-25.2z"/>
				<path id="&lt;Path&gt;" class="s4" d="m650.4 623.8c2.8-1.1 5.7-2.3 8.3-3.7 2.4-1.4 4.7-3 7.6-3.1 2.3 0 4.8 1.2 5.5 3.4 0.5 1.6-0.1 3.4-0.2 5.1 5.2 0.5 10.3 0.9 15.5 1 3.4 0.1 6.6-0.7 9.9-1.5 2.9-0.8 5.5-0.7 8.5-0.9 6.8-0.5 13.5-1.3 20.3-1.3 36.9 0 107.4-11.4 139.3-39.4 9-7.9 18.7-15.5 25.3-25.6 6.1-9.5 10.8-23.6 5.9-34.6-2.6-5.7-7.8-9.9-13.4-12.8-10.6-5.3-23-6.2-34.3-3.1-6 1.7-10.4 5.1-15.9 7.6-5.5 2.6-11.3 4.6-16.7 7.7-21 12-42.4 25.5-60.8 41.1-15.5 13.2-32.4 29.2-54.2 28.6-7.7-0.2-15-2.9-22.7-3.4-9.4-0.7-19.8 1-28.6 4.5-9 3.5-18.8 6.8-26.7 12.4-1.7 1.3-5.1 6-1.2 6.8 1.2 0.2 2.5-0.3 3.6-0.7q8.1-3.3 16.2-6.5c2.5-1 5.2-2.1 7.8-1.6-5.9 2.6-10.4 4.7-14.8 9.7-0.7 0.9-1.5 1.9-1.4 3 0 0.9 0.7 1.8 1.5 2.3 5.7 3.5 14.2-3.8 19.6-5.3-1.4 0.4-3.9 2.3-5 3.2-1.8 1.4-2.9 3.2-3.5 5.3-0.2 0.4-0.3 0.9-0.2 1.4 0.4 1.6 3.8 0.8 4.8 0.4z"/>
				<g id="&lt;Group&gt;">
					<path id="&lt;Path&gt;" class="s4" d="m693.3 356.7c0 3.5 0.4 7.4-0.7 10.3-1.1 3.2-4.8 4.6-8.1 5.7 2.4 6.7 8.6 10 14.8 12.4 3.8 1.4 7.8 2.2 11.7 2.4 8.2 0.5 16.8-0.4 24.6-3.2 4.1-1.4 8-3.5 11.1-6.6 0.9-0.9 8-11.4 7.3-11.5-3.1-0.4-6.6-1.7-8.3-4.3-3.7-5.7-2.6-11.4-2.7-17.8-0.2-9 1-18 1.3-27.1 0.5-18.4-2.4-37.8-18.6-49.2q-0.3-0.2-0.5-0.3c-5.9-4.1-12.3-7.7-19.1-10-7.2-2.4-12-2.7-19 0-9.7 3.6-18.5 3.9-22.7 14.9-1.8 4.8-4.4 4.7-4.9 9.8-1.4 16.1-0.6 37.7 2.7 53.6 1.1 5.1 3 10.6 7.4 13.3 2.1 1.3 4.5 1.9 7 2.3 5.5 1 11.3 1.2 16.9 0.7-0.2 1.4-0.3 3-0.2 4.6z"/>
					<path id="&lt;Path&gt;" class="s3" d="m669.7 287.1c11.9 2.2 24.1 2.8 36.1 1.7-0.6 2.6-1.7 7-0.1 9.4 1.2 1.8 4.4 2.2 5.3 0.3 2.3 5.7 4.2 10.2 7.8 15.3 6.9 9.8 14.6 16.2 25.2 22.1 0.6 0.3 6.3-23.5 6.6-25.7 1.1-8.7 0.8-17.5 0.5-26.2-0.4-10.3-8.9-20.2-17.7-25-7.1-3.8-15.1-5.5-23.1-6.6-12.3-1.8-25.9-2.1-38.2-0.6-6.4 0.8-13.4 2.8-16.6 8.3-3.6 6.2-3 18.7 3.2 23.1 2.9 2.1 6.6 3 10.1 3.7q0.5 0.1 0.9 0.2z"/>
					<path id="&lt;Path&gt;" class="s4" d="m723.9 293.9c5.8 1.6 9.4 8.3 7.7 14.1-2 6.6-11.3 8.1-17.2 6.4-1.3-0.3-2.5-0.9-3.3-1.9-0.5-0.9-2.6-4.6-2.6-5.6-0.3-8 5.2-15.9 15.4-13z"/>
				</g>
				<path id="&lt;Path&gt;" class="s5" d="m692.2 353.8c2.5-1.3 4.7-2.9 6.7-4.9"/>
				<path id="&lt;Path&gt;" class="s5" d="m724.5 297.2c-2.8-0.5-5.9 0.3-7.9 2.3-2.1 2-3.2 5-2.8 7.8"/>
				<path id="&lt;Path&gt;" class="s5" d="m673.6 300.4c0.7 3 1 6 1 9 0 1.1-0.1 2.3-1 3-0.5 0.4-1.2 0.6-1.8 0.9-1.1 0.5-1.9 1.8-1.8 3.1 0.2 1.3 1.2 2.4 2.4 2.6"/>
				<path id="&lt;Path&gt;" class="s3" d="m665.4 301c-0.4-1-1.2-1.9-2.4-2.2-2.5-0.5-4.9 2.2-4.2 4.6 0.6 2.2 3.2 3.1 5.1 1.9 0.2-0.2 0.5-0.4 0.7-0.7 0.2-0.2 0.4-0.4 0.5-0.6 0.5-1 0.6-2.1 0.3-3z"/>
				<path id="&lt;Path&gt;" class="s3" d="m693.1 302.8c-0.4-1-1.2-1.9-2.4-2.1-2.5-0.6-4.9 2.1-4.2 4.5 0.6 2.2 3.2 3.1 5 1.9 0.3-0.2 0.6-0.4 0.8-0.7 0.2-0.2 0.4-0.4 0.5-0.6 0.5-0.9 0.6-2 0.3-3z"/>
				<path id="&lt;Path&gt;" class="s8" d="m795.2 506c-12-14.2-17.5-32.8-28.8-47.5"/>
				<path id="&lt;Path&gt;" class="s5" d="m819.5 520c7.2-1.1 14.9 0.5 21.1 4.4"/>
				<path id="&lt;Path&gt;" class="s5" d="m893.7 533.6c2.1 4.6 0 10.6-4.5 13"/>
				<path id="&lt;Path&gt;" class="s0" d="m664.1 324.8c0 3.9 1.3 7.9 4.9 10 3.9 2.3 9.3 1.5 12.8-1.5 3-2.6 4.6-6.4 4.9-10.3-7.5 1-15 1.6-22.6 1.8z"/>
				<path id="&lt;Path&gt;" class="s5" d="m698.7 295.4c-2.4-3.6-7.5-5.1-11.4-3.4"/>
				<path id="&lt;Path&gt;" class="s5" d="m657.7 292.1c1.5-0.7 3-1.3 4.6-1.5 1.6-0.1 3.3 0.3 4.3 1.5"/>
				<path id="&lt;Path&gt;" class="s5" d="m632.7 615.8c8.2-11 30.6-16.6 43.5-17"/>
				<path id="&lt;Path&gt;" class="s5" d="m646.2 621c3.1-5 8.3-8.5 13.9-10.5 5.5-2 19-3.6 24.9-3.9"/>
			</g>
			<path id="&lt;Path&gt;" class="s6" d="m659.1 374.8q-5 0.8-9.9 1.8c-19.1 3.6-38.1 8.3-56.1 15.7-5.6 2.4-11.2 5-16.7 7.7 7.5 2.2 11.1 10.9 15.4 18.4 13.5 23.7 22.3 72.7 17.6 87.6 4.4-0.1 18.7-12.9 22.6-15.7 6.8-5 14.1-10.3 15.3-11.4 9.1-7.9 17.8-17.2 23.2-28.2 4.7-9.5 4-22.2 5.9-32.7q4-22.4 7.3-44.8c0-0.1-12.7 0.7-24.6 1.6z"/>
			<path id="&lt;Path&gt;" class="s8" d="m627.6 498.2c0.8-25.2 2.6-50.3 5.4-75.4"/>
		</g>
		<g id="&lt;Group&gt;">
			<g id="&lt;Group&gt;">
				<g id="&lt;Group&gt;">
					<g id="&lt;Group&gt;">
						<g id="&lt;Group&gt;">
							<g id="&lt;Group&gt;">
								<g id="&lt;Group&gt;">
									<g id="&lt;Group&gt;">
										<path id="&lt;Compound Path&gt;" fill-rule="evenodd" class="s7" d="m614.8 197c3.8-0.1 6.8-3.4 6.7-7.3-0.2-4-3.4-7-7.3-6.8-0.2 0-0.4 0-0.7 0.1q0.6-4.2 1.8-8.1c0.2 0.1 0.4 0.3 0.7 0.4 3.4 1.8 7.6 0.5 9.4-3 1.7-3.5 0.4-7.8-3-9.6-0.2-0.1-0.4-0.2-0.7-0.2q2.5-3.4 5.6-6.2c0.1 0.3 0.2 0.5 0.3 0.8 2.1 3.3 6.4 4.3 9.6 2.2 3.3-2.1 4.2-6.5 2.2-9.8-0.2-0.3-0.3-0.5-0.5-0.7q3.7-1.7 7.8-2.5c0 0.3 0 0.6 0 0.9 0.1 3.9 3.4 7 7.2 6.8 3.8-0.2 6.8-3.5 6.7-7.4 0-0.3-0.1-0.6-0.2-0.9q4.2 0.5 8.1 1.8-0.3 0.4-0.5 0.9c-1.8 3.4-0.5 7.7 2.9 9.5 3.4 1.8 7.6 0.5 9.4-3q0.2-0.5 0.4-1 3.3 2.6 6.1 5.8-0.5 0.2-1 0.5c-3.2 2.1-4.2 6.5-2.1 9.8 2 3.3 6.3 4.3 9.6 2.2q0.4-0.3 0.8-0.7 1.6 3.9 2.5 8.2-0.6-0.1-1.1-0.1c-3.9 0.2-6.9 3.5-6.7 7.4 0.1 3.9 3.4 7 7.2 6.8q0.6 0 1.1-0.2-0.5 4.4-1.9 8.4-0.4-0.4-0.9-0.6c-3.4-1.9-7.6-0.5-9.4 3-1.8 3.4-0.5 7.7 2.9 9.5q0.5 0.3 1 0.4-2.6 3.4-5.7 6.3-0.2-0.5-0.5-1c-2.1-3.3-6.4-4.3-9.6-2.2-3.2 2.1-4.2 6.5-2.2 9.8 0.2 0.3 0.4 0.5 0.7 0.8q-3.9 1.6-8 2.5 0.1-0.5 0.1-1c-0.2-3.9-3.4-7-7.3-6.8-3.8 0.1-6.8 3.5-6.6 7.4 0 0.3 0 0.6 0.1 0.8q-4.2-0.5-8-1.8c0.1-0.3 0.3-0.5 0.5-0.8 1.7-3.5 0.4-7.7-3-9.6-3.4-1.8-7.6-0.4-9.3 3-0.2 0.3-0.2 0.5-0.3 0.8q-3.3-2.6-6-5.7c0.2-0.1 0.5-0.2 0.7-0.4 3.3-2.1 4.2-6.4 2.2-9.7-2.1-3.4-6.4-4.3-9.6-2.2-0.2 0.1-0.4 0.3-0.6 0.4q-1.5-3.8-2.4-7.9c0.3 0 0.5 0.1 0.8 0zm41.6 20.2c15.7-0.6 27.8-14.1 27.2-30.1-0.6-15.9-13.8-28.3-29.4-27.6-15.7 0.7-27.8 14.1-27.2 30.1 0.6 15.9 13.8 28.3 29.4 27.6z"/>
									</g>
									<path id="&lt;Compound Path&gt;" fill-rule="evenodd" class="s7" d="m649.1 220.6c-17.4-3.5-28.8-20.8-25.4-38.6 3.5-17.7 20.4-29.4 37.8-25.9 17.5 3.4 28.8 20.7 25.4 38.5-3.4 17.8-20.4 29.4-37.8 26zm24.7-28.6c2.1-10.4-4.6-20.6-14.8-22.6-10.3-2-20.2 4.8-22.2 15.2-2 10.5 4.6 20.6 14.9 22.6 10.2 2.1 20.1-4.8 22.1-15.2z"/>
								</g>
							</g>
						</g>
					</g>
				</g>
			</g>
			<g id="&lt;Group&gt;">
				<g id="&lt;Group&gt;">
					<g id="&lt;Group&gt;">
						<g id="&lt;Group&gt;">
							<g id="&lt;Group&gt;">
								<g id="&lt;Group&gt;">
									<g id="&lt;Group&gt;">
										<path id="&lt;Compound Path&gt;" fill-rule="evenodd" class="s7" d="m507.8 216.8c4.9-0.2 8.7-4.4 8.5-9.4-0.2-4.9-4.3-8.8-9.2-8.6-0.3 0-0.6 0.1-0.9 0.1q0.7-5.3 2.3-10.3c0.3 0.2 0.5 0.4 0.8 0.6 4.3 2.3 9.7 0.6 11.9-3.8 2.3-4.4 0.6-9.9-3.7-12.2-0.3-0.2-0.6-0.3-0.9-0.4q3.2-4.2 7.1-7.8c0.1 0.3 0.3 0.7 0.4 1 2.7 4.2 8.1 5.4 12.2 2.8 4.2-2.7 5.4-8.3 2.8-12.5-0.2-0.3-0.4-0.6-0.7-0.9q4.8-2 10-3.2c0 0.4-0.1 0.8 0 1.2 0.2 5 4.3 8.9 9.2 8.7 4.8-0.2 8.6-4.5 8.4-9.4 0-0.4-0.1-0.8-0.1-1.2q5.3 0.6 10.3 2.3c-0.3 0.3-0.5 0.7-0.7 1.1-2.3 4.4-0.6 9.9 3.7 12.2 4.3 2.3 9.6 0.6 11.9-3.8 0.2-0.4 0.4-0.9 0.5-1.3q4.3 3.3 7.8 7.4c-0.4 0.1-0.8 0.3-1.2 0.6-4.2 2.7-5.4 8.3-2.8 12.5 2.6 4.2 8.1 5.4 12.2 2.7 0.4-0.2 0.8-0.5 1.1-0.8q2.1 4.9 3.2 10.4-0.7-0.1-1.5-0.1c-4.9 0.2-8.7 4.4-8.5 9.4 0.2 5 4.3 8.8 9.2 8.6 0.5 0 1-0.1 1.4-0.2q-0.7 5.5-2.4 10.6-0.5-0.4-1.2-0.8c-4.3-2.3-9.7-0.6-11.9 3.9-2.3 4.4-0.6 9.8 3.7 12.1 0.4 0.2 0.8 0.4 1.2 0.5q-3.2 4.4-7.2 8c-0.2-0.4-0.4-0.9-0.6-1.3-2.7-4.2-8.1-5.4-12.2-2.7-4.2 2.6-5.4 8.2-2.8 12.4 0.2 0.4 0.5 0.7 0.8 1q-4.9 2.1-10.1 3.2c0-0.4 0.1-0.9 0-1.3-0.2-5-4.3-8.9-9.2-8.6-4.8 0.2-8.6 4.4-8.4 9.4 0 0.3 0.1 0.7 0.1 1.1q-5.3-0.7-10.2-2.4c0.2-0.3 0.5-0.6 0.6-1 2.3-4.4 0.7-9.8-3.7-12.2-4.3-2.3-9.6-0.5-11.9 3.9-0.2 0.3-0.3 0.6-0.4 0.9q-4.1-3.2-7.6-7.2c0.3-0.2 0.6-0.3 0.9-0.5 4.2-2.7 5.4-8.2 2.8-12.4-2.6-4.2-8.1-5.5-12.2-2.8-0.3 0.2-0.5 0.4-0.7 0.6q-2-4.9-3.1-10.1c0.4 0 0.7 0.1 1 0zm53 25.7c19.9-0.8 35.4-18 34.6-38.3-0.8-20.3-17.6-36-37.5-35.2-19.9 0.9-35.4 18.1-34.6 38.3 0.8 20.3 17.6 36.1 37.5 35.2z"/>
									</g>
									<path id="&lt;Compound Path&gt;" fill-rule="evenodd" class="s7" d="m551.4 246.8c-22.1-4.4-36.6-26.4-32.2-49 4.3-22.7 25.9-37.5 48.1-33.1 22.1 4.4 36.6 26.4 32.2 49-4.3 22.7-25.9 37.5-48.1 33.1zm34.9-35.7c3-15.2-6.8-29.9-21.6-32.9-14.9-3-29.4 7-32.3 22.2-3 15.2 6.7 29.9 21.6 32.9 14.9 3 29.4-7 32.3-22.2z"/>
								</g>
							</g>
						</g>
					</g>
				</g>
			</g>
		</g>
		<g id="&lt;Group&gt;">
			<g id="&lt;Group&gt;">
				<path id="&lt;Path&gt;" class="s9" d="m460.8 296.9c1.3 1.2 3.8 3.5 4.5 2.2-1.4 2.5-1.9 5.3-2.3 8.1q-1.9 12-3.8 24c-2.1 13.5-6.5 22.3-21 24.9-15.8 2.8-32.7-1.1-45.8-10.5-8.2-5.9-9.1-15.3-7-24.8 2.8-13.4 10-26.6 15.8-38.9 1.4-2.9 2.8-5.8 4.9-8.3 3.7 5.2 10.3 4.9 15.9 6.3 6.5 1.7 12.6 4.3 18.6 7.1 4.3 2 8.9 3.3 13.2 5.4 2.1 0.9 4.6 2 6.2 3.7 0.2 0.1 0.4 0.4 0.8 0.8z"/>
				<path id="&lt;Path&gt;" class="s9" d="m484.2 304q1.8-1 3.6-1.9c2.4-1.2 5.6-2.1 7.4-0.1 0.8 0.9 1.1 2.1 1 3.3-0.3 3.4-3 6-5.5 8.2q-15.6 13.8-31.8 26.9c-3 2.5-7.1 5-10.5 3.1-2.1-1.2-3.1-3.8-3.4-6.3-0.7-5.4-1.5-11.1 0.8-16.3 4-9.1 13.7-9.2 22-8.4 1.1 0.1 2.2 0.2 3.2-0.1 1.4-0.3 2.5-1.2 3.6-2.1q4.6-3.5 9.6-6.3z"/>
				<path id="&lt;Path&gt;" class="s9" d="m409 265c2.9-6.4 6.6-12.4 10.1-18.4 1.7-2.9 4.6-8.5 8.5-8.4 1.3 0 2.5 0.7 3.1 1.8 1 1.7 0.4 3.9-0.3 5.8-1.6 4.5-4.3 8.2-6.5 12.5-2.2 4.4-5.1 11.1-6.3 15.8-2.2 8.7-4.5 14.2-8.1 22.4-0.6 1.4 1.2 4.1 0 5-3.1 2.2-8.1-2.7-8.6-5.7-0.2-1.3-5-0.7-4.7-2 1.8-7.7 5.4-12.1 8.3-19.4 0.5-1.2 3.9-8.2 4.5-9.4z"/>
				<path id="&lt;Path&gt;" class="s9" d="m446 299.3q-0.6 1.1-1.2 2.1c-1.6 2.9-3.2 6.1-2.1 9.2 3.4 9.6 18.4 7.2 20.3-1.8 3.5-17.3 13.1-32 19.5-48.5 1.2-3.1 2.1-7.1-0.5-9.4-2-1.8-5.4-1.4-7.7 0.1-2.2 1.5-3.6 3.9-4.9 6.2q-11.7 21.1-23.4 42.1z"/>
				<path id="&lt;Path&gt;" class="s9" d="m432.4 286.2q-0.6 1.1-1.1 2.2c-1.6 2.9-3.2 6.3-2.2 9.5 3.3 9.8 15.2 7.2 18.1-1.8 5.3-16.5 14.6-33.4 20.9-50.3 1.2-3.2 2.2-7.3-0.3-9.7-2-1.8-5.3-1.4-7.5 0.2-2.2 1.5-3.6 4-4.8 6.4q-11.6 21.8-23.1 43.5z"/>
				<path id="&lt;Path&gt;" class="s9" d="m414.7 285q-0.5 1.1-1.1 2.1c-1.4 3-2.9 6.3-2 9.4 2.8 9.7 15.6 6.9 17.4-2.3 3.5-17.6 12.1-32.8 17.9-49.6 1.1-3.2 2-7.2-0.2-9.5-1.7-1.8-4.7-1.3-6.6 0.3-2 1.5-3.2 4-4.4 6.4q-10.5 21.6-21 43.2z"/>
				<path id="&lt;Path&gt;" class="s8" d="m450.3 289.2q-1.2 2.1-2.4 4.2"/>
				<path id="&lt;Path&gt;" class="s8" d="m432.9 282q-1.7 3-3.8 5.8"/>
				<path id="&lt;Path&gt;" class="s8" d="m417.9 278.6c-1.5 0.9-2.4 2.6-2.6 4.3"/>
				<path id="&lt;Path&gt;" class="s8" d="m462.1 310.9c-1 1.2-1.7 2.7-2.3 4.1q-2.7 5.9-5.5 11.8"/>
				<path id="&lt;Path&gt;" class="s8" d="m457.1 341.6c-1.3 0.9-3.3-0.2-4-1.6-0.7-1.5-0.5-3.3-0.2-4.9"/>
				<path id="&lt;Path&gt;" class="s8" d="m483.2 303.8c0.3 3.4 2.3 6.5 4.2 9.3 0.5 0.7 0.9 1.4 1.6 1.9"/>
				<path id="&lt;Path&gt;" class="s8" d="m471.5 312.4c0.5 2.7 2.2 4.9 3.9 7q1 1.3 2.1 2.5c0.5 0.7 0.9 1.3 1.5 1.8"/>
				<path id="&lt;Path&gt;" class="s8" d="m466.2 261.6c1.6 2.1 3.3 4.1 5.3 5.8 2 1.6 4.4 2.9 7 3.2"/>
				<path id="&lt;Path&gt;" class="s8" d="m458.8 275.2c3.6 4.1 8.7 6.8 14 7.5"/>
				<path id="&lt;Path&gt;" class="s8" d="m453.7 244.2c3 3.7 7.8 5.7 12.6 6.3"/>
				<path id="&lt;Path&gt;" class="s8" d="m446.7 259.2c4 3.1 8.7 5.2 13.7 6.1"/>
				<path id="&lt;Path&gt;" class="s8" d="m438.7 272.7c3.9 4.2 9.6 6.7 15.4 6.8"/>
				<path id="&lt;Path&gt;" class="s8" d="m422.8 268.4c0.4 0.3 0.8 0.6 1.1 0.9 2.9 2.8 6.8 4.4 10.8 4.4q0.3 0 0.6 0"/>
				<path id="&lt;Path&gt;" class="s8" d="m427.9 257.3c3.2 3.6 7.7 6 12.5 6.5"/>
				<path id="&lt;Path&gt;" class="s8" d="m434.3 243.7c0.2 1.2 1.3 2.1 2.4 2.7 2.5 1.5 5.5 2.4 8.4 2.5"/>
				<path id="&lt;Path&gt;" class="s8" d="m418.7 247.2c0.6 1 1.5 1.7 2.4 2.3 1.9 1.2 4 2.1 6.2 2.6"/>
				<path id="&lt;Path&gt;" class="s8" d="m412.3 257.9c0.4 0.5 0.8 0.9 1.3 1.2 2.2 2 4.9 3.9 7.9 3.8"/>
				<path id="&lt;Path&gt;" class="s8" d="m453.2 286.5c1.2 2.1 3.3 3.7 5.6 4.7 2.2 1.1 6.7 1.7 9.2 2.2"/>
				<path id="&lt;Path&gt;" class="s9" d="m329.7 455.2c41.7-18.1 97.7-64.1 101.6-113.7 1-12-11.4-25.5-24-19-9.2 4.7-14 15.1-19.5 23.4-24.5 36.2-66.1 49.4-106 61.5-6.2 1.9-12.6 3.9-17.8 7.7-8.2 6.2-12.6 17.1-10.9 27.2 6.3 37.5 55.6 21.9 76.6 12.9z"/>
				<path id="&lt;Path&gt;" class="s8" d="m389.5 342.9c6.9 4.3 8.9 6.5 16.5 9.4 6 2.3 17.5 5.7 23.8 4.9"/>
				<path id="&lt;Path&gt;" class="s8" d="m386.9 347.5c7 4.2 9 6.4 16.6 9.4 5.9 2.3 17.5 5.7 23.8 4.9"/>
				<path id="&lt;Path&gt;" class="s8" d="m437.2 335.6c2.7-5.7 6.5-10.7 8.2-16.8 1.6-6.1 0.7-13.8-4.7-18.6-12.3-10.9-32.7-10.7-41.1 0.5-4.9 6.5-6.6 15-8.2 23.3 14 4.3 31.8 7.5 45.8 11.6z"/>
			</g>
			<path id="&lt;Path&gt;" class="s7" d="m554.9 618.6c0-3.2-2.3-5.7-5.1-5.7h-210.4c-2.8 0-5.1 2.5-5.1 5.7 0 3.2 2.3 5.8 5.1 5.8h210.4c2.8 0 5.1-2.6 5.1-5.8z"/>
			<g id="&lt;Group&gt;">
				<g id="&lt;Group&gt;">
					<path id="&lt;Path&gt;" class="s7" d="m413.3 584.1h-282c-3.2 0-5.9-2.4-6.4-5.5l-23.9-165.9c-0.6-3.9 2.4-7.4 6.4-7.4h281.9c3.2 0 6 2.4 6.4 5.6l23.9 165.8c0.6 3.9-2.4 7.4-6.3 7.4z"/>
					<path id="&lt;Path&gt;" class="s3" d="m322.6 622.7h-109.7c0-8.5 6.9-15.3 15.4-15.3h78.9c8.5 0 15.4 6.8 15.4 15.3z"/>
					<path id="&lt;Path&gt;" class="s3" d="m283.1 550.7h-55.2c-3.2 0-5.9-2.3-6.3-5.5l-2-13.8c-0.6-3.8 2.4-7.3 6.4-7.3h55.1c3.2 0 6 2.3 6.4 5.5l2 13.8c0.6 3.8-2.5 7.3-6.4 7.3z"/>
					<path id="&lt;Path&gt;" class="s10" d="m270.3 615.5c-6.5-11.7-13-23.5-16.7-36.3-3.7-12.8-4.5-26.9 0.5-39.3"/>
				</g>
				<g id="&lt;Group&gt;">
					<path id="&lt;Path&gt;" class="s8" d="m230.2 505.9l-5.6-39.2"/>
					<path id="&lt;Path&gt;" class="s8" d="m241.2 505.9l-5.7-39.2"/>
					<path id="&lt;Path&gt;" class="s8" d="m252.1 505.9l-5.6-39.2"/>
					<path id="&lt;Path&gt;" class="s8" d="m263.1 505.9l-5.7-39.2"/>
					<path id="&lt;Path&gt;" class="s8" d="m274 505.9l-5.6-39.2"/>
				</g>
			</g>
		</g>
		<g id="&lt;Group&gt;">
			<path id="&lt;Path&gt;" class="s3" d="m597.3 622.3v5.2h265.1v-5.2z"/>
			<path id="&lt;Path&gt;" class="s3" d="m573.1 622.3h-448.6v5.2h448.6z"/>
		</g>
		<g id="&lt;Group&gt;">
			<g id="&lt;Group&gt;">
				<g id="&lt;Group&gt;">
					<path id="&lt;Path&gt;" class="s3" d="m515.2 820.8h10.4c3.2-1.8 5.4-5.3 5.4-9.2v-21c0-5.9-4.7-10.6-10.6-10.6-5.9 0-10.6 4.7-10.6 10.6v21c0 3.9 2.1 7.4 5.4 9.2z"/>
					<path id="&lt;Path&gt;" class="s3" d="m521.4 702.7h-18.6v-22.4c0-7.3 5.9-13.2 13.2-13.2h5.4z"/>
					<path id="&lt;Path&gt;" class="s3" d="m439.9 820.8h10.5c3.2-1.8 5.4-5.3 5.4-9.2v-21c0-5.9-4.8-10.6-10.7-10.6-5.8 0-10.6 4.7-10.6 10.6v21c0 3.9 2.2 7.4 5.4 9.2z"/>
					<path id="&lt;Path&gt;" class="s11" d="m510.8 806.4h-68.2c-28.1 0-50.8-22.7-50.8-50.8v-19.2c0-28 22.7-50.8 50.8-50.8h68.2c28 0 50.8 22.8 50.8 50.8v19.2c0 28.1-22.8 50.8-50.8 50.8z"/>
					<path id="&lt;Path&gt;" class="s11" d="m564.8 757.6h-10.4v-31.7h10.4c3 0 5.4 2.5 5.4 5.4v20.9c0 2.9-2.4 5.4-5.4 5.4z"/>
					<path id="&lt;Path&gt;" class="s11" d="m519 820.8c1.9-1.9 3.1-4.5 3.1-7.4v-21c0-5.9-4.8-10.6-10.7-10.6-5.8 0-10.6 4.7-10.6 10.6v21c0 2.9 1.2 5.5 3.1 7.4z"/>
					<path id="&lt;Path&gt;" class="s11" d="m443.8 820.8c1.8-1.9 3-4.5 3-7.4v-21c0-5.9-4.7-10.6-10.6-10.6-5.9 0-10.6 4.7-10.6 10.6v21c0 2.9 1.1 5.5 3 7.4z"/>
					<path id="&lt;Path&gt;" class="s11" d="m403.1 727.6c-11.7 14.4-21.7 8.6-31.6 0.7 20.9 0.4 24.6-6.6 37.6-19.2z"/>
					<path id="&lt;Path&gt;" class="s11" d="m512.2 698.6h-18.5v-20c0-8.6 7-15.6 15.6-15.6h2.9z"/>
					<path id="&lt;Path&gt;" class="s3" d="m544.2 724.5c0 2.2-1.8 3.9-3.9 3.9-2.2 0-4-1.7-4-3.9 0-2.2 1.8-3.9 4-3.9 2.1 0 3.9 1.7 3.9 3.9z"/>
				</g>
				<path id="&lt;Path&gt;" class="s8" d="m563.9 725.9c3.5 0 6.3 2.9 6.3 6.3v19.1c0 3.4-2.8 6.3-6.3 6.3"/>
				<path id="&lt;Path&gt;" class="s8" d="m394.2 770.8c-1.6-4.8-2.4-10-2.4-15.4"/>
				<path id="&lt;Path&gt;" class="s8" d="m462.8 806.4h-20c-18.7 0-35-10-43.9-24.9"/>
				<path id="&lt;Path&gt;" class="s8" d="m510.6 806.4h-21.1"/>
				<path id="&lt;Path&gt;" class="s8" d="m494.6 685.3h27"/>
				<path id="&lt;Path&gt;" class="s3" d="m487.6 695.4h-54.4c-0.8 0-1.5-0.7-1.5-1.5v-0.5c0-0.8 0.7-1.5 1.5-1.5h54.4c0.8 0 1.5 0.7 1.5 1.5v0.5c0 0.8-0.7 1.5-1.5 1.5z"/>
				<path id="&lt;Path&gt;" class="s8" d="m559 771.3c-4 12.3-12.5 22.5-23.5 28.6"/>
			</g>
			<g id="&lt;Group&gt;">
				<g id="&lt;Group&gt;">
					<path id="&lt;Path&gt;" class="s12" d="m466.1 664.7c-11.3 7.9-28.1-4.7-37.6-28.2-9.6-23.4-8.1-48.9 3.2-56.8 2.5-1.8 5.4-4.1 8.4-3.9 10.1 0.7 21.9 13.9 29.2 32 6.5 15.9 8.2 33.8 5 45.4-1.5 5.6-4.5 8.9-8.2 11.5z"/>
					<path id="&lt;Path&gt;" class="s12" d="m470.4 661.8c-11.3 7.9-28.2-4.7-37.7-28.2-9.5-23.5-8.1-48.9 3.2-56.8 11.3-8 28.2 4.6 37.7 28.1 9.5 23.5 8.1 49-3.2 56.9z"/>
					<g id="&lt;Group&gt;">
						<path id="&lt;Compound Path&gt;" class="s13" d="m444 624.1l2.6-1.9c-0.9-2.2-1.4-4.8-1.2-6.5l2-0.3c0 1.8 0.3 4.1 1.1 6.2 1.1 2.7 2.9 3.7 4.4 2.7 1.4-1 1.7-3.1 1.3-6.4-0.5-4.6-0.3-7.8 1.9-9.3 2.1-1.5 4.6-0.4 6.4 2.8l2.6-1.8 1 2.3-2.5 1.7c0.9 2.3 1.1 4.2 1.1 5.6l-2.1 0.2c0-1-0.1-2.9-1-5.3-1.2-3-2.9-3.2-3.9-2.5-1.3 0.9-1.4 2.8-1 6.7 0.5 4.7 0 7.6-2.3 9.2-2 1.4-4.8 0.7-6.8-2.9l-2.7 1.8z"/>
					</g>
				</g>
				<path id="&lt;Path&gt;" class="s8" d="m470.4 661.8c-11.3 7.9-28.2-4.7-37.7-28.2-9.5-23.5-8.1-48.9 3.2-56.8"/>
			</g>
			<g id="&lt;Group&gt;">
				<g id="&lt;Group&gt;">
					<path id="&lt;Path&gt;" class="s12" d="m482.6 455.2c13.7 1.9 17.4 22.6 8.3 46.3-9 23.6-27.5 41.2-41.1 39.3-3.2-0.4-6.8-0.7-8.8-2.9-7-7.4-6.6-25.1 0.5-43.4 6.1-15.9 17-30.2 27.3-36.5 5-3.1 9.4-3.5 13.8-2.8z"/>
					<path id="&lt;Path&gt;" class="s12" d="m477.5 454.4c13.7 1.9 17.4 22.6 8.3 46.3-9 23.6-27.5 41.3-41.1 39.3-13.7-1.9-17.4-22.6-8.3-46.3 9-23.6 27.5-41.2 41.1-39.3z"/>
					<g id="&lt;Group&gt;">
						<path id="&lt;Compound Path&gt;" class="s13" d="m471.1 500l-3.2-0.5c-0.8 2.2-2.3 4.5-3.6 5.7l-1.7-1.2c1.3-1.3 2.6-3.2 3.4-5.3 1.1-2.7 0.5-4.7-1.3-5-1.7-0.2-3.3 1.1-5.3 3.8-2.7 3.7-5.1 5.9-7.8 5.5-2.5-0.3-3.6-2.9-2.8-6.4l-3.1-0.5 0.9-2.3 3 0.4c1-2.3 2.1-3.8 3-4.8l1.7 1.2c-0.7 0.8-2 2.3-2.9 4.7-1.1 2.9-0.1 4.2 1.1 4.4 1.6 0.2 3-1.1 5.4-4.2 2.8-3.8 5.1-5.5 7.9-5.1 2.4 0.3 3.9 2.7 3 6.7l3.2 0.5z"/>
					</g>
				</g>
				<path id="&lt;Path&gt;" class="s8" d="m477.5 454.4c13.7 1.9 17.4 22.6 8.3 46.3-9 23.6-27.5 41.3-41.1 39.3"/>
			</g>
			<g id="&lt;Group&gt;">
				<g id="&lt;Group&gt;">
					<g id="&lt;Group&gt;">
						<path id="&lt;Path&gt;" class="s12" d="m558.8 588.2q0.4-3.6-0.7-6.8-1-3.3-3.4-6.5-2.4-3.2-5.4-6.8l-4.9-5.7q-1.2-1.4-2.4-2.8c-1.9-2.4-3-4.9-2.8-7.8 0.1-1.7 0.8-3.3 2.1-4.3 1.8-1.6 4.5-1.4 7-0.9 2.6 0.5 5.2 1.9 7.3 3.6 2.8 2.1 5.1 4.8 7.4 7.5 0.7 0.8 1.5 2.3 2.5 2.3q0 0 0 0c3.3-2.1 6-4.8 8.7-7.5q0 0 0 0c0.3-1 0.3-2.8 0.2-3.9-1.2-1.1-3-2.1-4.2-3.1-2.2-1.9-5.3-4.5-7.9-6.2l3.6-6.6c0.3-1.9 0-3.5-0.2-5.1-3.6-1.8-1.4 0.4-1.8 0.2q-2.2-1.3-4.7-1.9l-5.3 9.5q-9.7-4.1-17.6-2.4-7.8 1.8-12.3 9.9-2.1 3.8-2.5 7-0.4 3.2 0.5 6.2 0.9 3.1 2.9 6 2 2.9 4.7 6.1l4.2 5.1q1.3 1.7 2.8 3.3 1.5 1.7 2.5 3.4 1 1.7 1.2 3.7 0.1 1.9-1.1 4-2.4 4.4-7 4.3-4.6 0-11-3.6-4.3-2.4-7.7-5.1-3.5-2.7-6.9-6.6-2.7 2.3-5 4.5-2.3 2.2-4.1 4.6 2.1 2.3 4.1 4.3 1.9 1.9 4.1 3.6 2.2 1.8 4.7 3.4 2.6 1.7 6 3.6l0.8 0.4-5.3 9.6q1.9 1.8 4.1 3 2.3 1.3 4.7 1.9l5.9-10.4q10 3.3 17.6 0.8 7.6-2.4 11.7-9.8 2.5-4.4 2.9-8z"/>
					</g>
					<g id="&lt;Group&gt;">
						<path id="&lt;Compound Path&gt;" class="s12" d="m565.2 527.3l-5.2 9.2q3.9 2.6 7.3 5.4 3.3 2.9 6.8 6.5-3.5 4.9-9 8.4-1.2-1.4-2.5-2.8-1.3-1.4-2.9-2.8-1.6-1.3-3.7-2.8-2.1-1.5-4.9-3.1-1.8-0.9-3.7-1.7-1.9-0.8-3.7-0.9-1.9 0-3.5 0.8-1.7 0.8-2.8 2.8-1 1.8-1 3.5 0 1.6 0.8 3.2 0.7 1.5 1.9 3 1.2 1.5 2.4 2.9l4.9 5.6q3 3.6 5.4 6.8 2.3 3.2 3.4 6.5 1.1 3.2 0.7 6.9-0.4 3.6-2.9 8-4.1 7.3-11.7 9.8-7.6 2.4-17.7-0.9l-5.8 10.5q-2.4-0.7-4.7-2-2.2-1.2-4.2-3l5.4-9.5-0.9-0.5q-3.3-1.9-5.9-3.5-2.5-1.7-4.7-3.4-2.2-1.8-4.2-3.7-2-2-4-4.3 1.8-2.4 4.1-4.6 2.2-2.2 5-4.5 3.4 4 6.9 6.7 3.4 2.6 7.7 5 6.4 3.6 11 3.7 4.6 0 7-4.3 1.2-2.2 1-4.1-0.2-2-1.1-3.7-1-1.7-2.5-3.4-1.5-1.6-2.8-3.3l-4.3-5.1q-2.6-3.1-4.6-6.1-2-2.9-2.9-5.9-0.9-3.1-0.5-6.3 0.4-3.2 2.5-7 4.5-8.1 12.3-9.8 7.8-1.8 17.6 2.3l5.3-9.5"/>
					</g>
				</g>
				<g id="&lt;Group&gt;">
					<g id="&lt;Group&gt;">
						<path id="&lt;Compound Path&gt;" class="s8" d="m574.1 548.4q-3.5 4.9-9 8.4-1.2-1.4-2.5-2.8-1.3-1.4-2.9-2.8-1.6-1.3-3.7-2.8-2.1-1.5-4.9-3.1-1.8-0.9-3.7-1.7-1.9-0.8-3.7-0.9-1.9 0-3.5 0.8-1.7 0.8-2.8 2.8-1 1.8-1 3.5 0 1.6 0.8 3.2 0.7 1.5 1.9 3 1.2 1.5 2.4 2.9l4.9 5.6q3 3.6 5.4 6.8 2.3 3.2 3.4 6.5 1.1 3.2 0.7 6.9-0.4 3.6-2.9 8-4.1 7.3-11.7 9.8-7.6 2.4-17.7-0.9l-5.8 10.5q-2.4-0.7-4.7-2-2.2-1.2-4.2-3"/>
					</g>
				</g>
				<path id="&lt;Path&gt;" class="s8" d="m565.2 527.3l-5.2 9.2q1.9 1.2 3.6 2.5"/>
			</g>
		</g>
		<g id="&lt;Group&gt;">
			<g id="&lt;Group&gt;">
				<g id="&lt;Group&gt;">
					<path id="&lt;Path&gt;" class="s12" d="m324.1 300.6l-0.5 97.7 14.8 0.2 0.5-97.8z"/>
					<path id="&lt;Path&gt;" class="s7" d="m303 341.4l-0.4 56.7 14.8 0.2 0.4-56.8z"/>
					<path id="&lt;Path&gt;" class="s9" d="m297 317.8l-0.5 80.2-14.8-0.1 0.5-80.3z"/>
					<path id="&lt;Path&gt;" class="s4" d="m275.3 367.8l-0.2 30-14.7-0.2 0.1-30z"/>
				</g>
				<path id="&lt;Path&gt;" class="s14" d="m252.6 398.2l98.6 0.4"/>
			</g>
			<g id="&lt;Group&gt;">
				<g id="&lt;Group&gt;">
					<path id="&lt;Path&gt;" class="s4" d="m207.3 289.9l-0.3 108.5-13.4-0.1 0.3-108.4z"/>
					<path id="&lt;Path&gt;" class="s7" d="m227 302.5l-0.2 95.9h-13.3l0.2-95.9z"/>
					<path id="&lt;Path&gt;" class="s12" d="m174.9 347.1l-0.1 51.1 13.3 0.1 0.1-51.2z"/>
					<path id="&lt;Path&gt;" class="s9" d="m169.4 325.9l-0.2 72.3-13.3-0.1 0.2-72.3z"/>
					<path id="&lt;Path&gt;" class="s7" d="m150 371v27.1l-13.4-0.1 0.1-27z"/>
				</g>
				<path id="&lt;Path&gt;" class="s14" d="m129.7 398.6l103.5-0.1"/>
			</g>
		</g>
		<g id="&lt;Group&gt;">
			<g id="&lt;Group&gt;">
				<path id="&lt;Path&gt;" class="s3" d="m324.9 193.4l4.5 9.6-44.9 20.6-4.4-9.5z"/>
				<path id="&lt;Path&gt;" class="s7" d="m290.6 211.4l3 6.3c1.5 3.3 0.2 7.1-3 8.6l-8 3.6c-3.2 1.5-7 0-8.5-3.3l-3.1-6.3c-1.5-3.3-0.2-7.2 3-8.6l8-3.6c3.2-1.5 7 0 8.6 3.3z"/>
				<path id="&lt;Path&gt;" class="s7" d="m227.5 194.2c21.5-9.8 47.5 0.1 57.9 22.3 10.5 22.1 1.4 48-20.1 57.8-21.6 9.9-47.5-0.1-58-22.2-10.4-22.1-1.4-48 20.2-57.9z"/>
				<path id="&lt;Path&gt;" class="s9" d="m231.5 202.9c17-7.8 37.3 0 45.5 17.4 8.2 17.3 1.1 37.7-15.8 45.4-16.9 7.7-37.3-0.1-45.5-17.4-8.2-17.4-1.1-37.7 15.8-45.4z"/>
				<g id="&lt;Clip Group&gt;" clip-path="url(#cp1)">
					<path id="&lt;Path&gt;" class="s7" d="m366.5 176l3.3 7c1.7 3.6 0.3 7.8-3.2 9.5l-54.5 24.8c-3.5 1.6-7.7 0-9.4-3.6l-3.4-7c-1.7-3.6-0.2-7.8 3.3-9.4l54.5-24.9c3.5-1.6 7.7 0 9.4 3.6z"/>
					<path id="&lt;Path&gt;" class="s15" d="m302.4 214.6l67.6-30.9"/>
					<path id="&lt;Path&gt;" class="s15" d="m298.9 206.9l67.6-30.9"/>
				</g>
				<path id="&lt;Path&gt;" class="s15" d="m280.4 208.2c5.6 7.4 9 16.5 9.3 25.8"/>
				<path id="&lt;Path&gt;" class="s15" d="m263.8 194.8q3.7 1.7 7 4.1"/>
			</g>
			<g id="&lt;Group&gt;">
				<g id="&lt;Group&gt;">
					<path id="&lt;Compound Path&gt;" fill-rule="evenodd" class="s3" d="m229.8 220.9q0-3.7 2.3-6 2.3-2.4 5.9-2.4 3.7 0 6 2.4 2.3 2.4 2.3 6.1v2q0 3.7-2.3 6-2.4 2.3-5.9 2.3-3.6 0-6-2.3-2.3-2.3-2.3-6.2zm3.8 2.1q0 2.2 1.2 3.6 1.2 1.4 3.3 1.4 1.9 0 3.1-1.4 1.3-1.3 1.3-3.7v-2q0-2.2-1.2-3.6-1.2-1.4-3.3-1.4-2 0-3.2 1.4-1.2 1.4-1.2 3.7zm5.6 27.4l-2.9-1.8 19.7-31.5 2.9 1.8zm10.2-6.9q0-3.6 2.3-5.9 2.3-2.4 6-2.4 3.6 0 5.9 2.4 2.3 2.3 2.3 6.1v2q0 3.6-2.3 6-2.3 2.3-5.9 2.3-3.6 0-5.9-2.3-2.4-2.3-2.4-6.2zm3.8 2.2q0 2.2 1.2 3.6 1.3 1.4 3.3 1.4 2 0 3.2-1.4 1.2-1.4 1.2-3.7v-2.1q0-2.2-1.2-3.6-1.2-1.3-3.2-1.3-2 0-3.2 1.3-1.3 1.4-1.3 3.7z"/>
				</g>
			</g>
		</g>
		<g id="&lt;Group&gt;">
			<g id="&lt;Group&gt;">
				<g id="&lt;Group&gt;">
					<g id="&lt;Group&gt;">
						<path id="&lt;Path&gt;" class="s16" d="m133 792.1h-9.4c-2.9 0-5.2-2.3-5.2-5.3v-69.2c0-2.9 2.3-5.3 5.2-5.3h9.4c2.9 0 5.3 2.4 5.3 5.3v69.2c0 3-2.4 5.3-5.3 5.3z"/>
					</g>
					<g id="&lt;Group&gt;">
						<path id="&lt;Path&gt;" class="s16" d="m129.9 810.8h-3.2v-121.8h3.2z"/>
					</g>
				</g>
				<g id="&lt;Group&gt;">
					<g id="&lt;Group&gt;">
						<path id="&lt;Path&gt;" class="s7" d="m163.1 699h-9.5c-2.8 0-5.2-2.3-5.2-5.2v-16.1c0-2.9 2.4-5.2 5.2-5.2h9.5c2.9 0 5.2 2.3 5.2 5.2v16.1c0 2.9-2.3 5.2-5.2 5.2z"/>
					</g>
					<g id="&lt;Group&gt;">
						<path id="&lt;Path&gt;" class="s7" d="m160 810.8h-3.2v-171.1h3.2z"/>
					</g>
				</g>
				<g id="&lt;Group&gt;">
					<g id="&lt;Group&gt;">
						<path id="&lt;Path&gt;" class="s16" d="m199 753.5h-9.5c-2.9 0-5.2-2.3-5.2-5.2v-49.1c0-2.9 2.3-5.2 5.2-5.2h9.5c2.9 0 5.2 2.3 5.2 5.2v49.1c0 2.9-2.3 5.2-5.2 5.2z"/>
					</g>
					<g id="&lt;Group&gt;">
						<path id="&lt;Path&gt;" class="s16" d="m195.9 841.8h-3.2v-180.6h3.2z"/>
					</g>
				</g>
				<g id="&lt;Group&gt;">
					<g id="&lt;Group&gt;">
						<path id="&lt;Path&gt;" class="s16" d="m228.6 765.9h-9.4c-2.9 0-5.2-2.3-5.2-5.2v-17.3c0-2.9 2.3-5.2 5.2-5.2h9.4c2.9 0 5.3 2.3 5.3 5.2v17.3c0 2.9-2.4 5.2-5.3 5.2z"/>
					</g>
					<g id="&lt;Group&gt;">
						<path id="&lt;Path&gt;" class="s16" d="m225.5 779.9h-3.2v-61.2h3.2z"/>
					</g>
				</g>
				<g id="&lt;Group&gt;">
					<g id="&lt;Group&gt;">
						<path id="&lt;Path&gt;" class="s7" d="m256.7 832.6h-9.4c-2.9 0-5.2-2.3-5.2-5.2v-49c0-2.9 2.3-5.2 5.2-5.2h9.4c2.9 0 5.2 2.3 5.2 5.2v49c0 2.9-2.3 5.2-5.2 5.2z"/>
					</g>
					<g id="&lt;Group&gt;">
						<path id="&lt;Path&gt;" class="s7" d="m253.6 856.3h-3.2v-93.9h3.2z"/>
					</g>
				</g>
				<g id="&lt;Group&gt;">
					<g id="&lt;Group&gt;">
						<path id="&lt;Path&gt;" class="s16" d="m287.2 846.5h-9.5c-2.9 0-5.2-2.3-5.2-5.2v-121.2c0-2.8 2.3-5.2 5.2-5.2h9.5c2.8 0 5.2 2.4 5.2 5.2v121.2c0 2.9-2.4 5.2-5.2 5.2z"/>
					</g>
					<g id="&lt;Group&gt;">
						<path id="&lt;Path&gt;" class="s16" d="m284 853.7h-3.2v-171.1h3.2z"/>
					</g>
				</g>
				<g id="&lt;Group&gt;">
					<g id="&lt;Group&gt;">
						<path id="&lt;Path&gt;" class="s7" d="m319.9 849.7h-9.4c-2.9 0-5.2-2.4-5.2-5.2v-5.8c0-2.9 2.3-5.2 5.2-5.2h9.4c2.9 0 5.2 2.3 5.2 5.2v5.8c0 2.8-2.3 5.2-5.2 5.2z"/>
					</g>
					<g id="&lt;Group&gt;">
						<path id="&lt;Path&gt;" class="s7" d="m316.8 860.6h-3.2v-124.4h3.2z"/>
					</g>
				</g>
				<g id="&lt;Group&gt;">
					<g id="&lt;Group&gt;">
						<path id="&lt;Path&gt;" class="s16" d="m349.6 819.3h-9.5c-2.9 0-5.2-2.3-5.2-5.2v-56.5c0-2.9 2.3-5.2 5.2-5.2h9.5c2.9 0 5.2 2.3 5.2 5.2v56.5c0 2.9-2.3 5.2-5.2 5.2z"/>
					</g>
					<g id="&lt;Group&gt;">
						<path id="&lt;Path&gt;" class="s16" d="m346.5 845.6h-3.3v-122.3h3.3z"/>
					</g>
				</g>
				<g id="&lt;Group&gt;">
					<g id="&lt;Group&gt;">
						<path id="&lt;Path&gt;" class="s7" d="m382.4 797.9h-9.5c-2.9 0-5.2-2.3-5.2-5.2v-13c0-2.9 2.3-5.2 5.2-5.2h9.5c2.8 0 5.2 2.3 5.2 5.2v13c0 2.9-2.4 5.2-5.2 5.2z"/>
					</g>
					<g id="&lt;Group&gt;">
						<path id="&lt;Path&gt;" class="s7" d="m379.2 808.7h-3.2v-56.1h3.2z"/>
					</g>
				</g>
			</g>
			<g id="&lt;Group&gt;">
				<g id="&lt;Group&gt;">
					<g id="&lt;Group&gt;">
						<path id="&lt;Path&gt;" class="s7" d="m621.7 753.5h-9.5c-2.9 0-5.2-2.3-5.2-5.2v-36.6c0-2.9 2.3-5.3 5.2-5.3h9.5c2.8 0 5.2 2.4 5.2 5.3v36.6c0 2.9-2.4 5.2-5.2 5.2z"/>
					</g>
					<g id="&lt;Group&gt;">
						<path id="&lt;Path&gt;" class="s7" d="m618.5 827.9h-3.2v-138.5h3.2z"/>
					</g>
				</g>
				<g id="&lt;Group&gt;">
					<g id="&lt;Group&gt;">
						<path id="&lt;Path&gt;" class="s16" d="m655 835.3h-9.5c-2.9 0-5.2-2.3-5.2-5.2v-150.6c0-2.9 2.3-5.3 5.2-5.3h9.5c2.9 0 5.2 2.4 5.2 5.3v150.6c0 2.9-2.3 5.2-5.2 5.2z"/>
					</g>
					<g id="&lt;Group&gt;">
						<path id="&lt;Path&gt;" class="s16" d="m651.8 854.9h-3.2v-200.5h3.2z"/>
					</g>
				</g>
				<g id="&lt;Group&gt;">
					<g id="&lt;Group&gt;">
						<path id="&lt;Path&gt;" class="s7" d="m688.3 788.2h-9.5c-2.9 0-5.2-2.3-5.2-5.2v-99.4c0-2.9 2.3-5.2 5.2-5.2h9.5c2.9 0 5.2 2.3 5.2 5.2v99.4c0 2.9-2.3 5.2-5.2 5.2z"/>
					</g>
					<g id="&lt;Group&gt;">
						<path id="&lt;Path&gt;" class="s7" d="m685.2 807.9v-143.1h-3.3v143.1z"/>
					</g>
				</g>
				<g id="&lt;Group&gt;">
					<g id="&lt;Group&gt;">
						<path id="&lt;Path&gt;" class="s16" d="m721.6 733.8h-9.5c-2.9 0-5.2-2.3-5.2-5.2v-6.1c0-2.9 2.3-5.2 5.2-5.2h9.5c2.9 0 5.2 2.3 5.2 5.2v6.1c0 2.9-2.3 5.2-5.2 5.2z"/>
					</g>
					<g id="&lt;Group&gt;">
						<path id="&lt;Path&gt;" class="s16" d="m718.5 750.7h-3.2v-99.8h3.2z"/>
					</g>
				</g>
				<g id="&lt;Group&gt;">
					<g id="&lt;Group&gt;">
						<path id="&lt;Path&gt;" class="s16" d="m754.9 728.6h-9.5c-2.8 0-5.2-2.3-5.2-5.2v-3c0-2.9 2.4-5.2 5.2-5.2h9.5c2.9 0 5.2 2.3 5.2 5.2v3c0 2.9-2.3 5.2-5.2 5.2z"/>
					</g>
					<g id="&lt;Group&gt;">
						<path id="&lt;Path&gt;" class="s16" d="m751.8 742.3h-3.2v-76.4h3.2z"/>
					</g>
				</g>
				<g id="&lt;Group&gt;">
					<g id="&lt;Group&gt;">
						<path id="&lt;Path&gt;" class="s7" d="m821.5 829.7h-9.5c-2.8 0-5.2-2.3-5.2-5.2v-72.2c0-2.9 2.4-5.2 5.2-5.2h9.5c2.9 0 5.2 2.3 5.2 5.2v72.2c0 2.9-2.3 5.2-5.2 5.2z"/>
					</g>
					<g id="&lt;Group&gt;">
						<path id="&lt;Path&gt;" class="s7" d="m818.4 862.1h-3.2v-160.7h3.2z"/>
					</g>
				</g>
				<g id="&lt;Group&gt;">
					<g id="&lt;Group&gt;">
						<path id="&lt;Path&gt;" class="s16" d="m788.2 771.2h-9.5c-2.8 0-5.2-2.3-5.2-5.2v-18.5c0-2.9 2.4-5.2 5.2-5.2h9.5c2.9 0 5.2 2.3 5.2 5.2v18.5c0 2.9-2.3 5.2-5.2 5.2z"/>
					</g>
					<g id="&lt;Group&gt;">
						<path id="&lt;Path&gt;" class="s16" d="m785.1 784.5h-3.2v-69.2h3.2z"/>
					</g>
				</g>
				<g id="&lt;Group&gt;">
					<g id="&lt;Group&gt;">
						<path id="&lt;Path&gt;" class="s16" d="m588.4 790.9h-9.5c-2.9 0-5.2-2.3-5.2-5.2v-18.5c0-2.8 2.3-5.2 5.2-5.2h9.5c2.8 0 5.2 2.4 5.2 5.2v18.5c0 2.9-2.4 5.2-5.2 5.2z"/>
					</g>
					<g id="&lt;Group&gt;">
						<path id="&lt;Path&gt;" class="s16" d="m585.2 804.2h-3.2v-69.2h3.2z"/>
					</g>
				</g>
				<g id="&lt;Group&gt;">
					<g id="&lt;Group&gt;">
						<path id="&lt;Path&gt;" class="s16" d="m854.8 721.4h-9.4c-2.9 0-5.3-2.4-5.3-5.3v-23.7c0-2.9 2.4-5.2 5.3-5.2h9.4c2.9 0 5.2 2.3 5.2 5.2v23.7c0 2.9-2.3 5.3-5.2 5.3z"/>
					</g>
					<g id="&lt;Group&gt;">
						<path id="&lt;Path&gt;" class="s16" d="m851.7 738.6h-3.2v-75.4h3.2z"/>
					</g>
				</g>
			</g>
		</g>
		<g id="&lt;Group&gt;">
			<path id="&lt;Path&gt;" class="s8" d="m837.6 322.8c0 9.1-7.4 16.5-16.5 16.5-9.2 0-16.6-7.4-16.6-16.5 0-9.2 7.4-16.6 16.6-16.6 9.1 0 16.5 7.4 16.5 16.6z"/>
			<path id="&lt;Path&gt;" class="s8" d="m835.4 283c0 3.4-2.8 6.1-6.2 6.1-3.4 0-6.1-2.7-6.1-6.1 0-3.4 2.7-6.2 6.1-6.2 3.4 0 6.2 2.8 6.2 6.2z"/>
			<path id="&lt;Path&gt;" class="s8" d="m588.3 329.2c0 4.7-3.8 8.4-8.5 8.4-4.6 0-8.4-3.7-8.4-8.4 0-4.7 3.8-8.5 8.4-8.5 4.7 0 8.5 3.8 8.5 8.5z"/>
			<path id="&lt;Path&gt;" class="s8" d="m458.2 156c0 7-5.7 12.7-12.7 12.7-7 0-12.6-5.7-12.6-12.7 0-7 5.6-12.6 12.6-12.6"/>
			<path id="&lt;Path&gt;" class="s8" d="m455.7 183.1c0 3.2-2.7 5.9-6 5.9-3.2 0-5.9-2.7-5.9-5.9 0-3.3 2.7-6 5.9-6 3.3 0 6 2.7 6 6z"/>
			<path id="&lt;Path&gt;" class="s8" d="m119.5 326.7c-8 0-14.4-6.5-14.4-14.4 0-7.9 6.4-14.4 14.4-14.4 7.9 0 14.3 6.5 14.3 14.4 0 4-1.6 7.6-4.2 10.2"/>
			<path id="&lt;Path&gt;" class="s8" d="m330.9 682.3c-2.7-1.9-4.5-5-4.5-8.5 0-5.6 4.6-10.1 10.2-10.1 5.6 0 10.1 4.5 10.1 10.1 0 5.6-4.5 10.2-10.1 10.2-2.1 0-4.1-0.7-5.7-1.7z"/>
			<path id="&lt;Path&gt;" class="s8" d="m499.9 870.3c0 3.5-2.8 6.2-6.2 6.2-3.5 0-6.2-2.7-6.2-6.2 0-3.4 2.7-6.2 6.2-6.2 3.4 0 6.2 2.8 6.2 6.2z"/>
			<path id="&lt;Path&gt;" class="s8" d="m813.8 665.8c0 2.6-2.1 4.6-4.6 4.6-2.6 0-4.7-2-4.7-4.6 0-2.6 2.1-4.7 4.7-4.7 2.5 0 4.6 2.1 4.6 4.7z"/>
			<path id="&lt;Path&gt;" class="s8" d="m511.4 863c0-8.1 6.6-14.8 14.8-14.8 8.1 0 14.8 6.7 14.8 14.8 0 8.2-6.7 14.8-14.8 14.8"/>
			<path id="&lt;Path&gt;" class="s8" d="m88.2 595.3c0-4.2 3.4-7.6 7.6-7.6 4.2 0 7.6 3.4 7.6 7.6 0 4.2-3.4 7.6-7.6 7.6"/>
		</g>
	</g>
</svg>